<svg id="ball" xmlns="http://www.w3.org/2000/svg" xmlns:xlink="http://www.w3.org/1999/xlink" viewBox="0 0 400 400"><defs><style>.cls-1{fill:url(#Dégradé_sans_nom_126);}.cls-2{fill:#32423f;}.cls-3{fill:#1c2a2b;}</style><linearGradient id="Dégradé_sans_nom_126" x1="62.07" y1="376.24" x2="294.49" y2="33.81" gradientUnits="userSpaceOnUse"><stop offset="0.11" stop-color="#523c58"/><stop offset="0.39" stop-color="#8f2013"/><stop offset="0.72" stop-color="#c53717"/><stop offset="0.92" stop-color="#ce3b17"/></linearGradient></defs><title>Plan de travail 1</title><path class="cls-1" d="M162.92,368.16c-5.71,1.59-12.84,2.15-13.48.36-.44-1.21,2.59-2.16,4.64-5.68,3.83-6.6,2.39-15.73.36-16.15-1.85-.38-2.81,6.92-10.42,12.72a21.53,21.53,0,0,1-7.09,3.67c-1.48.42-3.4.46-7.21.77-6.19.49-8.11.23-12.06,1a42,42,0,0,0-6.81,2c-5.41,2-7.83,3.76-11.92,5.79A76.08,76.08,0,0,1,86,377.47c-13.51,3.56-29-.24-29.2-3.59-.16-2.23,8.78-1.55,15.6-9.2a25.81,25.81,0,0,0,5.77-12.36c1.86-9.3-2.3-12.21-2.81-24.77-.46-11.32,2.58-17.53.86-18.19-1.9-.73-7.66,6-9.54,13.85-1,4.13-.39,6.39-1.28,6.64-2.08.59-9.67-10.56-10-23.23-.16-7.29,2.11-13.78,4.34-20.17,2.34-6.68,5.07-11.73,4.38-19.2a40.07,40.07,0,0,0-1-5.85c-1.06-4.61-2.44-7.33-3.75-13.77a93.18,93.18,0,0,1-1.63-18c.13-6.47,1.35-18,8.61-31.74A99.59,99.59,0,0,0,77.2,166a98,98,0,0,0,1.19-16.85h0c-1.27-12-4.75-16.88-2.48-35.26.88-7.13,5-34.59,26.56-55.37C104,57.11,105.23,56,106,55.35c3.08-2.64,14.24-11.79,32.62-17.13,0,0,10.28-2.85,48-5.77l3.24-.27,1.85-.17s1.6-.16,3.19-.35c10.69-1.25,28-6,28-6A143.68,143.68,0,0,1,251,21.17C272.06,20,297.4,33,314.33,49.52c3.41,3.33,23,23,28.81,54.24,2.18,11.68.63,15.26-.65,30.42-.38,4.5-.75,10.08-1.09,21.27-1,32.88,6.13,39,1.7,58.87a62.07,62.07,0,0,1-35.24,44.9c-2.36,1-3.55,1.36-10.75,4.41-.87.37-22.42,10-31.38,15.85a124.37,124.37,0,0,0-18.4,14.4c-10.86,10.5-10.56,15.5-15,21.81a48.64,48.64,0,0,1-5,5.66c-9.37,8.92-20.83,6.79-31,14.59-9.42,7.2-5,13.13-17.7,23.83A41.79,41.79,0,0,1,162.92,368.16Z"/><circle class="cls-2" cx="212.32" cy="160.28" r="115"/><circle class="cls-3" cx="232.26" cy="129.96" r="15"/><circle class="cls-3" cx="232.26" cy="86.12" r="15"/><circle class="cls-3" cx="275.79" cy="117.28" r="15"/></svg>